<svg width="24" height="24" viewBox="0 0 24 24" fill="none" xmlns="http://www.w3.org/2000/svg">
<path d="M3.7502 19.75C3.53353 19.5333 3.4252 19.2833 3.4252 19C3.4252 18.7166 3.53353 18.4666 3.7502 18.25L9.8002 12.2C9.9002 12.1 10.0085 12.029 10.1252 11.987C10.2419 11.9456 10.3669 11.925 10.5002 11.925C10.6335 11.925 10.7585 11.9456 10.8752 11.987C10.9919 12.029 11.1002 12.1 11.2002 12.2L14.5002 15.5L20.9002 8.29995C21.0835 8.08328 21.3212 7.97495 21.6132 7.97495C21.9045 7.97495 22.1502 8.07495 22.3502 8.27495C22.5335 8.45828 22.6295 8.67928 22.6382 8.93795C22.6462 9.19595 22.5585 9.42495 22.3752 9.62495L15.2002 17.7C15.1002 17.8166 14.9879 17.904 14.8632 17.962C14.7379 18.0206 14.6085 18.05 14.4752 18.05C14.3419 18.05 14.2129 18.025 14.0882 17.975C13.9629 17.925 13.8502 17.85 13.7502 17.75L10.5002 14.5L5.2502 19.75C5.03353 19.9666 4.78353 20.075 4.5002 20.075C4.21686 20.075 3.96686 19.9666 3.7502 19.75ZM4.0002 13.3C3.91686 13.3 3.83353 13.279 3.7502 13.237C3.66686 13.1956 3.6002 13.125 3.5502 13.025L3.0502 11.95L1.9752 11.45C1.8752 11.4 1.80453 11.3333 1.7632 11.25C1.7212 11.1666 1.7002 11.0833 1.7002 11C1.7002 10.9166 1.7212 10.8333 1.7632 10.75C1.80453 10.6666 1.8752 10.6 1.9752 10.55L3.0502 10.05L3.5502 8.97495C3.6002 8.87495 3.66686 8.80395 3.7502 8.76195C3.83353 8.72062 3.91686 8.69995 4.0002 8.69995C4.08353 8.69995 4.16686 8.72062 4.2502 8.76195C4.33353 8.80395 4.4002 8.87495 4.4502 8.97495L4.9502 10.05L6.0252 10.55C6.20853 10.6333 6.3002 10.7833 6.3002 11C6.3002 11.2166 6.20853 11.3666 6.0252 11.45L4.9502 11.95L4.4502 13.025C4.4002 13.125 4.33353 13.1956 4.2502 13.237C4.16686 13.279 4.08353 13.3 4.0002 13.3ZM15.0002 11.3C14.9169 11.3 14.8335 11.279 14.7502 11.237C14.6669 11.1956 14.6002 11.125 14.5502 11.025L14.0502 9.94995L12.9752 9.44995C12.8752 9.39995 12.8045 9.33328 12.7632 9.24995C12.7212 9.16662 12.7002 9.08328 12.7002 8.99995C12.7002 8.91662 12.7212 8.83328 12.7632 8.74995C12.8045 8.66662 12.8752 8.59995 12.9752 8.54995L14.0502 8.04995L14.5502 6.97495C14.6002 6.87495 14.6669 6.80395 14.7502 6.76195C14.8335 6.72062 14.9169 6.69995 15.0002 6.69995C15.0835 6.69995 15.1669 6.72062 15.2502 6.76195C15.3335 6.80395 15.4002 6.87495 15.4502 6.97495L15.9502 8.04995L17.0252 8.54995C17.1252 8.59995 17.1962 8.66662 17.2382 8.74995C17.2795 8.83328 17.3002 8.91662 17.3002 8.99995C17.3002 9.08328 17.2795 9.16662 17.2382 9.24995C17.1962 9.33328 17.1252 9.39995 17.0252 9.44995L15.9502 9.94995L15.4502 11.025C15.4002 11.125 15.3335 11.1956 15.2502 11.237C15.1669 11.279 15.0835 11.3 15.0002 11.3ZM8.5002 8.29995C8.41686 8.29995 8.33353 8.27495 8.2502 8.22495C8.16686 8.17495 8.1002 8.09995 8.0502 7.99995L7.4002 6.59995L6.0002 5.94995C5.9002 5.89995 5.8252 5.83328 5.7752 5.74995C5.72519 5.66662 5.7002 5.58328 5.7002 5.49995C5.7002 5.41662 5.72519 5.33328 5.7752 5.24995C5.8252 5.16662 5.9002 5.09995 6.0002 5.04995L7.4002 4.39995L8.0502 2.99995C8.1002 2.89995 8.16686 2.82495 8.2502 2.77495C8.33353 2.72495 8.41686 2.69995 8.5002 2.69995C8.58353 2.69995 8.66686 2.72495 8.7502 2.77495C8.83353 2.82495 8.9002 2.89995 8.9502 2.99995L9.6002 4.39995L11.0002 5.04995C11.1002 5.09995 11.1752 5.16662 11.2252 5.24995C11.2752 5.33328 11.3002 5.41662 11.3002 5.49995C11.3002 5.58328 11.2752 5.66662 11.2252 5.74995C11.1752 5.83328 11.1002 5.89995 11.0002 5.94995L9.6002 6.59995L8.9502 7.99995C8.9002 8.09995 8.83353 8.17495 8.7502 8.22495C8.66686 8.27495 8.58353 8.29995 8.5002 8.29995Z" fill="white" fill-opacity="0.4"/>
</svg>
